<svg xmlns="http://www.w3.org/2000/svg" width="24" height="23" fill="none"><g clip-path="url(#a)"><path fill="#fff" fill-rule="evenodd" d="M23.625 11.375C23.625 5.093 18.335 0 11.812 0 5.29 0 0 5.093 0 11.375c0 5.677 4.319 10.383 9.967 11.237v-7.948h-3v-3.289h3V8.869c0-2.85 1.764-4.426 4.462-4.426 1.292 0 2.644.222 2.644.222v2.8h-1.49c-1.466 0-1.925.876-1.925 1.777v2.133h3.275l-.523 3.29h-2.752v7.948c5.648-.853 9.967-5.56 9.967-11.238Z" clip-rule="evenodd"/></g><defs><clipPath id="a"><path fill="#fff" d="M0 0h24v23H0z"/></clipPath></defs></svg>