<svg xmlns="http://www.w3.org/2000/svg" width="24" height="23" fill="none"><g fill="#fff" clip-path="url(#a)"><path d="M16.734 1.896a5.034 5.034 0 0 1 3.476 1.392 4.667 4.667 0 0 1 1.446 3.348v9.478a4.667 4.667 0 0 1-1.446 3.348 5.034 5.034 0 0 1-3.476 1.392H6.891a5.034 5.034 0 0 1-3.476-1.392 4.667 4.667 0 0 1-1.446-3.348V6.636a4.667 4.667 0 0 1 1.446-3.348A5.035 5.035 0 0 1 6.89 1.896h9.843Zm0-1.896H6.891C3.1 0 0 2.986 0 6.636v9.478c0 3.65 3.1 6.636 6.89 6.636h9.844c3.79 0 6.891-2.986 6.891-6.636V6.636c0-3.65-3.1-6.636-6.89-6.636Z"/><path d="M18.21 6.636c-.291 0-.577-.084-.82-.24a1.435 1.435 0 0 1-.543-.638 1.373 1.373 0 0 1-.084-.822c.056-.275.197-.529.404-.728.206-.198.47-.334.756-.389a1.53 1.53 0 0 1 .853.081c.27.108.5.29.663.524a1.385 1.385 0 0 1-.183 1.796 1.48 1.48 0 0 1-.48.308c-.179.072-.371.108-.565.108Zm-6.398.947c.78 0 1.54.223 2.188.64a3.826 3.826 0 0 1 1.45 1.701c.299.693.376 1.455.225 2.19a3.75 3.75 0 0 1-1.078 1.942c-.55.53-1.252.892-2.016 1.038a4.079 4.079 0 0 1-2.275-.216 3.91 3.91 0 0 1-1.768-1.396 3.693 3.693 0 0 1-.663-2.107 3.726 3.726 0 0 1 1.154-2.68 4.02 4.02 0 0 1 2.784-1.112Zm0-1.895a6.07 6.07 0 0 0-3.28.958A5.74 5.74 0 0 0 6.355 9.2a5.492 5.492 0 0 0-.336 3.286 5.625 5.625 0 0 0 1.616 2.912 5.98 5.98 0 0 0 3.024 1.556 6.118 6.118 0 0 0 3.413-.323 5.864 5.864 0 0 0 2.65-2.095 5.539 5.539 0 0 0 .996-3.16 5.583 5.583 0 0 0-1.73-4.022 6.023 6.023 0 0 0-4.177-1.665Z"/></g><defs><clipPath id="a"><path fill="#fff" d="M0 0h24v23H0z"/></clipPath></defs></svg>