<svg xmlns="http://www.w3.org/2000/svg" width="25" height="24" fill="none"><g clip-path="url(#a)"><path fill="#fff" d="M12.315 0C5.687 0 .313 5.372.313 11.997c0 4.912 2.957 9.132 7.185 10.99-.032-.835-.005-1.842.209-2.752l1.543-6.54s-.386-.766-.386-1.896c0-1.778 1.03-3.106 2.315-3.106 1.093 0 1.618.82 1.618 1.8 0 1.097-.702 2.736-1.06 4.257-.3 1.275.637 2.309 1.896 2.309 2.272 0 3.805-2.92 3.805-6.38 0-2.629-1.774-4.595-4.994-4.595-3.639 0-5.91 2.716-5.91 5.747 0 1.045.31 1.784.793 2.351.22.263.251.37.171.67-.059.22-.188.75-.246.964-.08.305-.327.412-.6.3-1.678-.685-2.46-2.517-2.46-4.585 0-3.406 2.877-7.493 8.579-7.493 4.581 0 7.598 3.316 7.598 6.872 0 4.708-2.62 8.221-6.479 8.221-1.296 0-2.513-.701-2.93-1.494 0 0-.697 2.764-.847 3.3-.252.926-.75 1.847-1.206 2.57A12.07 12.07 0 0 0 12.31 24c6.628 0 12.002-5.372 12.002-11.997C24.313 5.377 18.944 0 12.316 0Z"/></g><defs><clipPath id="a"><path fill="#fff" d="M0 0h25v24H0z"/></clipPath></defs></svg>