<svg xmlns="http://www.w3.org/2000/svg" width="200" height="111" fill="none"><path fill="#292E36" d="M57.5 53.16c.48-.08.84.08 1.08.48.28.36.34.76.18 1.2-.12.4-.42.64-.9.72-1.24.16-2.62.38-4.14.66-2.08 7.12-5.34 13.68-9.78 19.68-4.44 6-9.8 11-16.08 15-1.28.84-2.3 1.48-3.06 1.92-.76.48-1.92 1.14-3.48 1.98-1.52.88-2.88 1.54-4.08 1.98-1.2.44-2.52.86-3.96 1.26-1.4.44-2.74.62-4.02.54-1.28-.04-2.44-.32-3.48-.84-1.56-.76-2.62-1.82-3.18-3.18-.56-1.32-.64-2.74-.24-4.26.36-1.52.88-2.96 1.56-4.32.64-1.36 1.42-2.62 2.34-3.78 5.48-7.16 12.18-13.14 20.1-17.94 7.92-4.84 16.4-8.2 25.44-10.08.92-3.44 1.56-6.88 1.92-10.32.36-3.48.38-7.02.06-10.62-.28-3.6-.92-6.98-1.92-10.14-1-3.16-2.52-6.12-4.56-8.88-2-2.76-4.42-5.04-7.26-6.84-2.16-1.36-4.5-2.38-7.02-3.06-2.48-.72-4.98-1.08-7.5-1.08-2.48 0-4.96.44-7.44 1.32a20.69 20.69 0 0 0-6.6 3.72c-3.84 3.24-6.36 7.34-7.56 12.3-1.2 4.96-.82 9.72 1.14 14.28.2.48.16.9-.12 1.26-.28.32-.64.48-1.08.48-.44-.04-.76-.28-.96-.72C1.66 33.04.98 30.12.86 27.12c-.12-3 .24-5.8 1.08-8.4.84-2.64 2.12-5.12 3.84-7.44 1.72-2.36 3.7-4.34 5.94-5.94 2.28-1.6 4.86-2.8 7.74-3.6C22.34.9 25.3.62 28.34.9c3.88.36 7.4 1.38 10.56 3.06 3.2 1.68 5.86 3.8 7.98 6.36 2.12 2.52 3.9 5.42 5.34 8.7 1.48 3.28 2.52 6.68 3.12 10.2.64 3.48.94 7.04.9 10.68-.08 4.56-.68 9.14-1.8 13.74 1.2-.2 2.22-.36 3.06-.48Zm-9.48 11.52c1.16-2.4 2.18-5.02 3.06-7.86-8.8 1.96-17.06 5.32-24.78 10.08-7.68 4.72-13.9 10.54-18.66 17.46-2.04 2.88-3.06 5.06-3.06 6.54 0 1.08.18 1.98.54 2.7.36.76.78 1.3 1.26 1.62.48.36 1.1.58 1.86.66.8.08 1.52.08 2.16 0 .64-.08 1.42-.26 2.34-.54.92-.24 1.6-.46 2.04-.66.44-.16 1.02-.38 1.74-.66.12-.04.22-.08.3-.12 4.44-1.8 8.62-4.1 12.54-6.9 8.2-5.96 14.42-13.4 18.66-22.32Zm17.86-9.48c1.88.48 3.2 1.64 3.96 3.48.76 1.8.8 3.62.12 5.46-.6 1.76-1.5 3.38-2.7 4.86-1.2 1.48-2.56 2.26-4.08 2.34-1.56.08-2.7-.46-3.42-1.62-.68-1.16-.88-2.5-.6-4.02.56-3.12 2.18-6.24 4.86-9.36.08-.08.18-.16.3-.24.28-.76.8-1.06 1.56-.9Zm-3.96 13.38c.76.68 1.9.22 3.42-1.38 1.76-1.84 2.7-3.76 2.82-5.76.12-1.72-.62-2.94-2.22-3.66-.32.36-.66.8-1.02 1.32-.36.48-.78 1.08-1.26 1.8s-.9 1.44-1.26 2.16c-.36.72-.66 1.44-.9 2.16-.24.68-.34 1.32-.3 1.92.08.6.32 1.08.72 1.44Zm28.424-12.72c.4-.28.82-.32 1.26-.12.44.2.68.5.72.9.08.4-.06.76-.42 1.08-2.92 2.04-5.58 4.02-7.98 5.94 1.08.68 1.96 1.36 2.64 2.04.72.64 1.34 1.38 1.86 2.22.56.84.76 1.76.6 2.76-.16 1-.66 2-1.5 3s-1.94 1.92-3.3 2.76c-1.36.88-2.8 1.54-4.32 1.98-1.48.48-2.9.46-4.26-.06-1.36-.52-2.34-1.58-2.94-3.18-.92-2.52.42-5.42 4.02-8.7.88-.76 1.88-1.62 3-2.58-.08-.04-.6-.32-1.56-.84-.96-.52-1.6-.88-1.92-1.08-.32-.2-.84-.54-1.56-1.02-.68-.48-1.22-.94-1.62-1.38-.4-.44-.76-.92-1.08-1.44-1.24-2.16-.56-4.58 2.04-7.26 2.24-2.32 4.82-3.82 7.74-4.5 3.2-.76 5.22-.06 6.06 2.1.12.36.22.76.3 1.2.04.48-.12.86-.48 1.14-.36.24-.76.3-1.2.18-.44-.16-.68-.48-.72-.96-.32-2.2-2.34-2.18-6.06.06-1.64.96-2.88 1.86-3.72 2.7-.72.72-1.24 1.34-1.56 1.86-.28.52-.36 1.1-.24 1.74.16.6.6 1.24 1.32 1.92.36.32.78.66 1.26 1.02.48.32.88.58 1.2.78.36.2.86.5 1.5.9.68.36 1.12.6 1.32.72.12.04.28.14.48.3.24.12.42.2.54.24 2.64-2.12 5.5-4.26 8.58-6.42Zm-5.4 16.98c.52-.56.9-1.1 1.14-1.62.24-.52.32-1 .24-1.44-.08-.48-.24-.92-.48-1.32-.2-.4-.54-.8-1.02-1.2-.44-.4-.88-.74-1.32-1.02-.44-.32-.96-.66-1.56-1.02-1.08.92-2.1 1.78-3.06 2.58-.16.16-.44.4-.84.72-.36.32-.66.58-.9.78-.24.2-.5.48-.78.84-.24.32-.44.64-.6.96-.88 1.96-.8 3.36.24 4.2 1.08.84 2.52 1.02 4.32.54 1.48-.36 3.02-1.36 4.62-3Zm29.329-17.28c.36-.36.74-.44 1.14-.24.4.16.64.46.72.9.12.4.02.8-.3 1.2-8.24 8.44-15.36 11.94-21.36 10.5-2.12-.48-3.72-1.4-4.8-2.76-1.08-1.4-1.5-2.94-1.26-4.62.2-1.72.98-3.36 2.34-4.92 1.08-1.16 2.48-2.1 4.2-2.82 2.56-1.04 3.82-.4 3.78 1.92v.12c-.04 1.56-.98 3.04-2.82 4.44-1.84 1.4-3.5 1.86-4.98 1.38-.16 1.8.6 3.14 2.28 4.02 1.68.88 3.52 1.14 5.52.78 2.84-.52 5.48-1.62 7.92-3.3 2.48-1.72 5.02-3.92 7.62-6.6Zm-19.02-.36c-.56.04-1.18.38-1.86 1.02-.64.64-1.2 1.34-1.68 2.1.84.4 1.86-.08 3.06-1.44.8-.92 1.02-1.48.66-1.68h-.18Zm32.412 3.24c.48-.08.84.06 1.08.42.28.36.34.76.18 1.2-.12.44-.42.7-.9.78-4.12.64-8.12 1.92-12 3.84-.12 4.8-.16 9.68-.12 14.64.68.56 1.16.98 1.44 1.26 3.36 3.12 5.52 8.22 6.48 15.3.36 2.68.26 5.34-.3 7.98-.84 4.12-2.64 5.04-5.4 2.76-.8-.68-1.5-1.62-2.1-2.82-.56-1.16-1-2.32-1.32-3.48-.28-1.16-.52-2.58-.72-4.26-.16-1.68-.26-3.08-.3-4.2-.04-1.08-.08-2.46-.12-4.14-.04-1.64-.06-2.72-.06-3.24-.04-.88-.08-2.06-.12-3.54-4.08-3.08-8.88-4.36-14.4-3.84-.6.04-1-.22-1.2-.78-.24-.52-.14-.98.3-1.38 5.48-5.2 10.66-9.12 15.54-11.76.24-5.08.6-10.18 1.08-15.3.04-.52.1-1.46.18-2.82.12-1.36.22-2.6.3-3.72.08-1.16.22-2.52.42-4.08.2-1.6.44-3.02.72-4.26.28-1.24.68-2.48 1.2-3.72.52-1.28 1.1-2.3 1.74-3.06.68-.76 1.52-1.32 2.52-1.68 1-.4 2.1-.48 3.3-.24.48.12.8.4.96.84.16.44.12.84-.12 1.2s-.6.48-1.08.36c-.96-.2-1.86.12-2.7.96-.8.84-1.5 2.1-2.1 3.78-.56 1.68-1.08 3.62-1.56 5.82-.44 2.2-.82 4.72-1.14 7.56-.32 2.8-.58 5.58-.78 8.34-.16 2.76-.3 5.7-.42 8.82 3.72-1.76 7.56-2.94 11.52-3.54Zm-5.94 43.32c.32-3.56-.02-6.96-1.02-10.2-1-3.2-2.58-5.96-4.74-8.28.08 2.96.16 5.02.24 6.18.36 4.68.86 8.26 1.5 10.74.52 1.96 1.22 3.34 2.1 4.14.92.84 1.52.3 1.8-1.62l.12-.96Zm-8.4-24.12c-.04-3.96.02-7.82.18-11.58-3.68 2.08-7.52 4.94-11.52 8.58 4.24.12 8.02 1.12 11.34 3Zm15.126-23.28c.2-.44.52-.68.96-.72.44-.04.8.1 1.08.42.32.32.4.72.24 1.2-2.04 5.12-3.02 10.32-2.94 15.6 0 .68-.34 1.02-1.02 1.02-.72 0-1.16-.32-1.32-.96-.04-.12-.06-.24-.06-.36-.08-5.4.94-10.8 3.06-16.2Zm4.02-6.9c.28.68.08 1.22-.6 1.62l-4.26 2.52c-.28.16-.58.18-.9.06-.32-.16-.54-.38-.66-.66-.28-.64-.08-1.18.6-1.62l4.26-2.52c.28-.16.58-.16.9 0 .32.12.54.32.66.6Zm41.53 8.28c.32-.36.7-.5 1.14-.42.48.08.8.32.96.72.2.36.16.74-.12 1.14-1 1.24-2.18 2.52-3.54 3.84-1.36 1.32-2.96 2.64-4.8 3.96-1.84 1.28-3.64 2.3-5.4 3.06-1.76.72-3.56 1-5.4.84-1.84-.2-3.42-1-4.74-2.4-.72-.8-1.7-1.98-2.94-3.54-1.2-1.56-2.08-2.66-2.64-3.3-.36-.36-.7-.64-1.02-.84-.32-.24-.6-.4-.84-.48-.24-.08-.5-.06-.78.06s-.52.24-.72.36c-.16.08-.38.28-.66.6-.28.32-.48.58-.6.78-.12.2-.34.54-.66 1.02-.32.44-.54.74-.66.9-.2.32-.74 1.34-1.62 3.06-.84 1.68-1.72 3.12-2.64 4.32-.88 1.16-1.72 1.8-2.52 1.92-.48.08-.86-.06-1.14-.42-.28-.4-.48-.82-.6-1.26-.16-.48-.22-1.04-.18-1.68.04-.68.08-1.2.12-1.56.04-.36.14-.94.3-1.74.16-.8.26-1.26.3-1.38.24-1.52.7-3.68 1.38-6.48.68-2.84 1.08-4.54 1.2-5.1.12-.44.4-.74.84-.9.44-.16.84-.12 1.2.12s.48.6.36 1.08c-.2.88-.54 2.34-1.02 4.38-.48 2-.84 3.54-1.08 4.62-.48 2.36-.78 4-.9 4.92v.54c.32-.6.72-1.24 1.2-1.92.52-.68 1.06-1.4 1.62-2.16.56-.76.96-1.34 1.2-1.74.12-.16.28-.4.48-.72.24-.32.44-.6.6-.84.16-.24.34-.5.54-.78.24-.32.46-.6.66-.84s.42-.48.66-.72c.24-.24.48-.46.72-.66.28-.2.54-.36.78-.48.64-.16 1.2-.24 1.68-.24s1 .18 1.56.54c.56.36 1.04.74 1.44 1.14.44.4.9.9 1.38 1.5.52.6.94 1.16 1.26 1.68.36.48.72 1 1.08 1.56.4.56.74 1 1.02 1.32 1.4 1.72 2.66 2.74 3.78 3.06 1.12.28 2.72.04 4.8-.72 4.88-1.8 9.2-5.04 12.96-9.72Zm23.709-.18c.36-.36.74-.44 1.14-.24.4.16.64.46.72.9.12.4.02.8-.3 1.2-8.24 8.44-15.36 11.94-21.36 10.5-2.12-.48-3.72-1.4-4.8-2.76-1.08-1.4-1.5-2.94-1.26-4.62.2-1.72.98-3.36 2.34-4.92 1.08-1.16 2.48-2.1 4.2-2.82 2.56-1.04 3.82-.4 3.78 1.92v.12c-.04 1.56-.98 3.04-2.82 4.44-1.84 1.4-3.5 1.86-4.98 1.38-.16 1.8.6 3.14 2.28 4.02 1.68.88 3.52 1.14 5.52.78 2.84-.52 5.48-1.62 7.92-3.3 2.48-1.72 5.02-3.92 7.62-6.6Zm-19.02-.36c-.56.04-1.18.38-1.86 1.02-.64.64-1.2 1.34-1.68 2.1.84.4 1.86-.08 3.06-1.44.8-.92 1.02-1.48.66-1.68h-.18Z"/></svg>