<svg xmlns="http://www.w3.org/2000/svg" width="49" height="49" fill="none"><g clip-path="url(#a)"><path stroke="#fff" stroke-linecap="round" stroke-linejoin="round" stroke-width="3.5" d="M8.117 9.807a22.055 22.055 0 0 0-5.616 14.451c-.14 12.197 9.823 22.2 22 22.241 12.177.02 21.999-9.842 21.999-22 0-11.975-9.58-21.737-21.496-21.999-.06 0-.141 0-.201.04a.44.44 0 0 0-.161.101c-.04.04-.08.101-.121.161-.02.06-.04.121-.04.202v9.58"/><path fill="#fff" d="m21.924 27.076-9.057-12.942a.865.865 0 0 1-.161-.624.92.92 0 0 1 .262-.583.947.947 0 0 1 1.188-.1l12.941 9.056a3.711 3.711 0 0 1 1.49 2.396 3.728 3.728 0 0 1-.624 2.757 3.707 3.707 0 0 1-5.132.946 3.522 3.522 0 0 1-.907-.906Z"/></g><defs><clipPath id="a"><path fill="#fff" d="M0 0h49v49H0z"/></clipPath></defs></svg>