<svg xmlns="http://www.w3.org/2000/svg" width="26" height="21" fill="none"><g clip-path="url(#a)"><path fill="#fff" d="M25.469 2.4c-.95.412-1.954.684-2.982.806A5.142 5.142 0 0 0 24.772.38a10.427 10.427 0 0 1-3.3 1.239A5.228 5.228 0 0 0 17.68 0c-2.87 0-5.192 2.289-5.192 5.11-.002.392.043.784.134 1.165A14.803 14.803 0 0 1 1.917.933a5.046 5.046 0 0 0-.706 2.569c0 1.771.924 3.338 2.32 4.255A5.142 5.142 0 0 1 1.17 7.12v.063c0 2.479 1.793 4.54 4.166 5.01-.446.12-.906.18-1.368.18-.328 0-.655-.032-.976-.095.66 2.03 2.58 3.506 4.854 3.549a10.526 10.526 0 0 1-7.69 2.114 14.696 14.696 0 0 0 7.95 2.31c9.563 0 14.788-7.789 14.788-14.544 0-.222-.005-.443-.016-.66a10.468 10.468 0 0 0 2.59-2.647Z"/></g><defs><clipPath id="a"><path fill="#fff" d="M0 0h26v21H0z"/></clipPath></defs></svg>