<svg xmlns="http://www.w3.org/2000/svg" width="378" height="188" fill="none"><g fill="#E1B168" clip-path="url(#a)"><path d="M189 158.721c-34 0-61.681-27.672-61.681-61.704 0-34.033 27.681-61.684 61.681-61.684s61.681 27.67 61.681 61.703S223 158.721 189 158.721Zm0-121.419c-32.917 0-59.712 26.785-59.712 59.734 0 32.95 26.795 59.715 59.712 59.715 32.918 0 59.712-26.785 59.712-59.734 0-32.95-26.794-59.715-59.712-59.715Z"/><path d="M189 170.537a74.45 74.45 0 0 1-14.805-1.497 73.207 73.207 0 0 1-13.801-4.273 74.234 74.234 0 0 1-12.482-6.775c-3.898-2.62-7.54-5.653-10.867-8.981a75.224 75.224 0 0 1-8.978-10.872.853.853 0 0 1 1.418-.945 71.782 71.782 0 0 0 19.392 19.399 70.83 70.83 0 0 0 12.186 6.618 71.602 71.602 0 0 0 13.467 4.175c9.45 1.93 19.471 1.93 28.94 0a71.602 71.602 0 0 0 13.467-4.175c4.252-1.792 8.347-4.038 12.186-6.618a73.052 73.052 0 0 0 10.631-8.764 70.83 70.83 0 0 0 8.761-10.635.853.853 0 0 1 1.418.945 73.186 73.186 0 0 1-8.978 10.872 74.266 74.266 0 0 1-10.867 8.981 72.274 72.274 0 0 1-12.482 6.775 73.207 73.207 0 0 1-13.801 4.273A74.45 74.45 0 0 1 189 170.537ZM249.224 57.253a.887.887 0 0 1-.709-.374 71.826 71.826 0 0 0-8.761-10.636 70.861 70.861 0 0 0-10.631-8.764 70.86 70.86 0 0 0-12.186-6.617 71.574 71.574 0 0 0-13.467-4.175c-9.45-1.93-19.471-1.93-28.94 0a71.122 71.122 0 0 0-13.467 4.175 72.867 72.867 0 0 0-12.186 6.617 71.827 71.827 0 0 0-19.392 19.4.854.854 0 0 1-1.182.236.854.854 0 0 1-.236-1.182 73.131 73.131 0 0 1 8.978-10.871 75.248 75.248 0 0 1 10.867-8.981c3.918-2.659 8.131-4.924 12.482-6.775a74.736 74.736 0 0 1 13.801-4.294 74.205 74.205 0 0 1 29.61 0 71.856 71.856 0 0 1 13.801 4.294c4.351 1.851 8.564 4.116 12.482 6.775a73.146 73.146 0 0 1 10.867 8.98 75.265 75.265 0 0 1 8.978 10.872.854.854 0 0 1-.236 1.182.951.951 0 0 1-.473.138Z"/><path d="M191.973 118.977c-4.43 0-8.741-.946-12.817-2.797a22.618 22.618 0 0 1-9.607 2.127c-12.64 0-22.936-10.3-22.936-22.945 0-10.753 7.54-20.108 17.994-22.393 5.473-10.083 15.908-16.307 27.366-16.307 16.4 0 29.925 12.703 31.027 29.03 5.178 3.21 8.368 8.902 8.368 14.988 0 9.729-7.915 17.647-17.64 17.647a17.61 17.61 0 0 1-8.643-2.285 30.567 30.567 0 0 1-13.112 2.935Zm-12.817-4.964.433.197c8.013 3.762 17.207 3.703 25.141-.177l.473-.236.453.276a15.734 15.734 0 0 0 8.091 2.264c8.643 0 15.671-7.031 15.671-15.677 0-5.573-3.012-10.773-7.855-13.57l-.472-.275-.02-.532c-.788-15.52-13.565-27.69-29.098-27.69-10.887 0-20.79 6.006-25.85 15.676l-.216.414-.453.098c-9.765 1.95-16.872 10.596-16.872 20.562 0 11.561 9.41 20.975 20.967 20.975 3.189 0 6.26-.729 9.174-2.127l.433-.178Z"/><path d="M212.093 137.372h-46.186v-21.31l1.102.138c.965.118 1.772.177 2.54.177 3.189 0 6.26-.729 9.174-2.127l.433-.236.433.196c8.013 3.762 17.207 3.703 25.141-.177l.473-.236.453.276a15.88 15.88 0 0 0 5.611 2.048l.826.138v21.113Zm-44.218-1.97h42.25v-17.489a17.356 17.356 0 0 1-5.021-1.891c-8.209 3.861-17.659 3.92-25.948.178a22.618 22.618 0 0 1-9.607 2.127c-.532 0-1.083-.02-1.674-.079v17.154ZM169.411 88.627a.975.975 0 0 1-.984-.985c0-12.821 10.434-23.26 23.251-23.26.551 0 .984.434.984.985a.975.975 0 0 1-.984.985c-11.734 0-21.283 9.552-21.283 21.29a.975.975 0 0 1-.984.985ZM377.016 70.448H244.223a.975.975 0 0 1-.984-.985c0-.552.433-.985.984-.985h132.793c.551 0 .984.433.984.985a.975.975 0 0 1-.984.985ZM377.016 125.573H244.223a.974.974 0 0 1-.984-.984c0-.552.433-.985.984-.985h132.793c.551 0 .984.433.984.985a.974.974 0 0 1-.984.984ZM133.777 70.448H.984A.975.975 0 0 1 0 69.463c0-.552.433-.985.984-.985h132.793c.551 0 .984.433.984.985a.987.987 0 0 1-.984.985ZM133.777 125.573H.984a.975.975 0 0 1-.984-.984c0-.552.433-.985.984-.985h132.793c.551 0 .984.433.984.985a.987.987 0 0 1-.984.984ZM75.127 101.881H41.069a4.874 4.874 0 0 1-4.863-4.865 4.874 4.874 0 0 1 4.863-4.864h36.737c.551 0 .984.433.984.985a.975.975 0 0 1-.984.984H41.068a2.9 2.9 0 0 0-2.894 2.895 2.9 2.9 0 0 0 2.894 2.896h34.04c.551 0 .984.433.984.984a.97.97 0 0 1-.965.985Z"/><path d="M19.412 110.921C9.076 110.921.65 104.697.65 97.036c0-7.662 8.406-13.885 18.762-13.885 10.336 0 18.762 6.223 18.762 13.885 0 7.661-8.407 13.885-18.762 13.885Zm0-25.82c-9.253 0-16.794 5.357-16.794 11.915 0 6.558 7.54 11.915 16.794 11.915 9.253 0 16.793-5.357 16.793-11.915 0-6.558-7.52-11.915-16.793-11.915ZM334.747 101.881h-34.04a.976.976 0 0 1-.985-.985c0-.551.434-.984.985-.984h34.04a2.9 2.9 0 0 0 2.894-2.896 2.9 2.9 0 0 0-2.894-2.895H298.01a.975.975 0 0 1-.985-.984c0-.552.433-.985.985-.985h36.737a4.874 4.874 0 0 1 4.862 4.864 4.874 4.874 0 0 1-4.862 4.865Z"/><path d="M353.43 106.233h-6.576c-5.079 0-9.213-4.136-9.213-9.217s4.134-9.217 9.213-9.217h6.576v18.434Zm-6.576-16.445c-3.996 0-7.245 3.25-7.245 7.248s3.249 7.247 7.245 7.247h4.607V89.808h-4.607v-.02Z"/><path d="M374.181 89.788h-21.716a.975.975 0 0 1-.984-.984c0-.552.433-.985.984-.985h21.716c.551 0 .984.433.984.985a.987.987 0 0 1-.984.984ZM374.181 98.001h-21.716a.975.975 0 0 1-.984-.985c0-.551.433-.984.984-.984h21.716c.551 0 .984.433.984.984a.987.987 0 0 1-.984.985ZM374.181 106.234h-21.716a.975.975 0 0 1-.984-.985c0-.552.433-.985.984-.985h21.716c.551 0 .984.433.984.985a.988.988 0 0 1-.984.985ZM128.461 110.921h-17.207a.975.975 0 0 1-.984-.985c0-.551.433-.984.984-.984h17.207c.551 0 .984.433.984.984a.975.975 0 0 1-.984.985ZM127.614 96.249H94.953a.975.975 0 0 1-.985-.985c0-.551.433-.985.985-.985h32.661c.552 0 .985.434.985.985a.975.975 0 0 1-.985.985ZM129.78 81.576h-17.207a.975.975 0 0 1-.984-.985c0-.551.433-.985.984-.985h17.207c.551 0 .984.434.984.985a.975.975 0 0 1-.984.985ZM128.441 103.575h-25.554a.976.976 0 0 1-.985-.985c0-.551.434-.985.985-.985h25.554c.551 0 .985.434.985.985a.988.988 0 0 1-.985.985ZM128.303 88.804h-25.554a.975.975 0 0 1-.984-.984c0-.552.433-.985.984-.985h25.554c.552 0 .985.433.985.985a.975.975 0 0 1-.985.984ZM266.726 83.329h-17.207a.975.975 0 0 1-.984-.985c0-.551.433-.985.984-.985h17.207c.551 0 .985.434.985.985a.976.976 0 0 1-.985.985ZM283.047 98.001h-32.661a.975.975 0 0 1-.985-.985c0-.551.433-.984.985-.984h32.661c.551 0 .985.433.985.984a.976.976 0 0 1-.985.985ZM265.407 112.674H248.2a.975.975 0 0 1-.984-.985c0-.551.433-.984.984-.984h17.207c.551 0 .985.433.985.984a.976.976 0 0 1-.985.985ZM275.113 90.675h-25.554a.975.975 0 0 1-.985-.985c0-.551.433-.984.985-.984h25.554c.551 0 .984.433.984.984a.975.975 0 0 1-.984.985ZM275.251 105.446h-25.554a.976.976 0 0 1-.985-.985c0-.552.433-.985.985-.985h25.554c.551 0 .984.433.984.985a.988.988 0 0 1-.984.985ZM124.051 146.136l-9.824 2.521-1.555-2.462 3.976-4.707-6.004 1.497-1.556-2.462 6.478-7.799 1.496 2.383-4.174 4.943 6.3-1.575 1.339 2.127-4.213 4.963 6.339-1.615 1.398 2.186ZM126.709 159.922l-1.536 1.438-5.316-5.633 7.029-6.617 5.197 5.514-1.535 1.438-3.327-3.545L126 153.64l2.933 3.111-1.476 1.399-2.934-3.112-1.279 1.201 3.465 3.683ZM135.706 157.894l2.146 1.693-4.646 5.869 3.602 2.856-1.338 1.694-5.749-4.55 5.985-7.562ZM142.203 173.807a4.72 4.72 0 0 1-.768-2.482c-.02-.886.197-1.752.689-2.599.473-.847 1.103-1.477 1.87-1.911a4.673 4.673 0 0 1 2.54-.61c.906.019 1.811.295 2.678.788.767.433 1.378.965 1.85 1.595.473.63.748 1.3.866 2.048l-2.303.492c-.177-.965-.65-1.674-1.418-2.107-.452-.256-.925-.394-1.378-.394-.472 0-.905.118-1.299.374a3.148 3.148 0 0 0-1.004 1.084c-.276.472-.414.945-.414 1.418 0 .472.099.906.355 1.319.236.394.59.729 1.043.985.768.433 1.615.492 2.54.138l.728 2.225a4.62 4.62 0 0 1-2.205.296c-.767-.079-1.535-.335-2.303-.768-.906-.493-1.595-1.123-2.067-1.891ZM155.433 180.346c-.611-.69-1.024-1.458-1.201-2.344-.177-.867-.099-1.753.216-2.659.315-.906.827-1.635 1.536-2.186a4.992 4.992 0 0 1 2.402-1.044c.906-.138 1.851-.02 2.815.315a5.682 5.682 0 0 1 2.363 1.536c.61.69 1.023 1.458 1.201 2.344.177.886.098 1.753-.217 2.659-.315.906-.827 1.635-1.536 2.186-.689.571-1.496.906-2.401 1.044-.906.138-1.851.02-2.796-.315-.984-.355-1.772-.867-2.382-1.536Zm4.489-.473c.452-.079.846-.276 1.22-.591.355-.315.63-.729.807-1.241.178-.512.237-1.004.158-1.477-.079-.473-.256-.886-.551-1.221a2.672 2.672 0 0 0-1.123-.768 2.666 2.666 0 0 0-1.358-.118c-.453.079-.847.276-1.221.591-.374.315-.63.728-.807 1.24-.177.512-.236 1.005-.157 1.478a2.486 2.486 0 0 0 1.673 2.008c.453.158.906.178 1.359.099ZM177.699 186.431l.748-5.061-3.09 3.742-1.201-.177-1.831-4.353-.768 4.924-2.5-.394 1.476-9.532 2.225.334 2.5 6.027 4.115-5.002 2.224.334-1.437 9.533-2.461-.375ZM194.611 184.817l.039 2.107-7.737.157-.197-9.65 7.56-.158.04 2.108-4.863.098.039 1.635 4.292-.099.039 2.049-4.291.098.039 1.773 5.04-.118ZM209.081 177.037l-2.854.769-.571-2.088 8.347-2.245.571 2.087-2.855.768 1.949 7.228-2.638.709-1.949-7.228ZM223.591 179.617c-.925-.059-1.752-.335-2.481-.847-.748-.492-1.299-1.181-1.693-2.048a4.97 4.97 0 0 1-.433-2.639 4.714 4.714 0 0 1 1.004-2.423c.571-.728 1.299-1.299 2.225-1.733.925-.433 1.85-.61 2.776-.551.925.059 1.752.335 2.48.847.748.512 1.3 1.181 1.693 2.068.394.886.532 1.752.434 2.639a4.72 4.72 0 0 1-1.004 2.422c-.571.729-1.3 1.3-2.245 1.733-.905.414-1.831.591-2.756.532Zm2.894-3.466c.256-.374.413-.788.453-1.28.039-.473-.059-.965-.276-1.458a2.854 2.854 0 0 0-.905-1.162 2.498 2.498 0 0 0-1.26-.492 2.645 2.645 0 0 0-1.339.236 2.445 2.445 0 0 0-1.063.867 2.564 2.564 0 0 0-.453 1.28c-.04.492.059.965.275 1.457.217.493.532.887.906 1.162.374.276.807.453 1.26.493.453.039.906-.04 1.339-.237a2.443 2.443 0 0 0 1.063-.866ZM244.814 167.091a4.907 4.907 0 0 1-2.618-.138c-.847-.276-1.575-.788-2.186-1.516-.61-.729-.984-1.537-1.122-2.423a4.729 4.729 0 0 1 .315-2.6c.335-.847.906-1.615 1.693-2.265.788-.65 1.615-1.083 2.52-1.28.906-.197 1.772-.157 2.619.138a4.901 4.901 0 0 1 2.185 1.517c.61.728.984 1.536 1.122 2.422a4.72 4.72 0 0 1-.315 2.6c-.335.847-.905 1.615-1.693 2.265a5.597 5.597 0 0 1-2.52 1.28Zm1.851-4.116c.157-.434.177-.887.098-1.34a2.904 2.904 0 0 0-.669-1.319c-.355-.414-.748-.709-1.182-.886a2.389 2.389 0 0 0-1.338-.138 2.577 2.577 0 0 0-1.241.591c-.374.315-.63.689-.787 1.122a2.582 2.582 0 0 0-.099 1.339c.099.473.315.906.67 1.32.354.414.748.709 1.181.886a2.42 2.42 0 0 0 1.339.138 2.592 2.592 0 0 0 1.24-.591c.374-.315.65-.689.788-1.122ZM255.682 156.2c-1.103.118-2.205-.296-3.308-1.221l-4.095-3.427 1.752-2.088 4.036 3.368c1.181.985 2.166 1.004 2.953.079.768-.926.571-1.891-.61-2.876l-4.036-3.367 1.733-2.068 4.095 3.427c1.102.925 1.693 1.93 1.791 3.052.099 1.123-.315 2.226-1.24 3.309-.965 1.103-1.969 1.694-3.071 1.812ZM265.151 140.405l-.748 1.28 2.205 1.3-1.378 2.363-8.328-4.864 2.225-3.821c.433-.749.945-1.34 1.516-1.753a3.419 3.419 0 0 1 1.831-.67c.63-.039 1.279.138 1.89.493.61.354 1.043.807 1.338 1.339.276.551.394 1.142.355 1.831l3.662-.236-1.477 2.521-3.091.217Zm-3.288-3.407c-.354.118-.669.433-.964.905l-.768 1.32 2.441 1.418.768-1.319c.276-.493.394-.906.315-1.281-.059-.374-.295-.669-.689-.886-.394-.217-.748-.276-1.103-.157ZM109.955 43.86c.118.965.59 2.009 1.457 3.112.039.02.019.078-.04.157s-.118.099-.157.079c-.512-.473-1.182-1.063-2.008-1.812a42.28 42.28 0 0 0-1.89-1.595c-.079-.06-.079-.118-.02-.197.059-.079.118-.099.197-.04.315.237.768-.039 1.358-.846.965-1.202 2.048-2.6 3.288-4.255.63-.846 1.28-1.733 1.949-2.698l1.063-1.477c.414-.532.67-.965.788-1.26.118-.296.098-.571-.059-.808-.04-.059-.04-.118 0-.197.059-.079.118-.079.157-.04a51.89 51.89 0 0 0 1.91 1.636c.866.709 1.575 1.28 2.126 1.693.039.04.039.08-.02.158-.059.079-.118.118-.157.098-1.201-.67-2.264-.945-3.17-.807-.905.138-1.713.65-2.382 1.556-.295.394-.492.728-.551.965a.79.79 0 0 0 .079.67c.137.196.393.433.767.728l9.844 7.386c.433.334.788.531 1.063.59.256.06.532 0 .788-.216.256-.197.61-.591 1.023-1.142.04-.04.099-.04.178.039.078.06.118.118.078.157-.374.493-.669.887-.905 1.163l-1.339 1.733-1.221 1.674c-.216.315-.511.728-.905 1.26-.02.02-.079.02-.158-.059-.078-.079-.118-.118-.098-.138.413-.551.689-.985.807-1.32.118-.314.118-.59-.02-.846-.137-.256-.413-.532-.846-.847l-9.883-7.405c-.374-.276-.67-.453-.886-.493-.217-.059-.433-.02-.65.118-.217.138-.453.394-.748.769-.65.886-.906 1.792-.807 2.757ZM144.624 29.385c.059.079.079.138.04.177-.453.394-.847.71-1.142.926l-1.496 1.24-1.713 1.478c-.236.216-.551.512-.965.847-.039.039-.098.02-.157-.08-.059-.078-.079-.137-.04-.176.512-.434.867-.788 1.044-1.044a.895.895 0 0 0 .138-.788c-.079-.256-.296-.59-.65-1.024l-3.977-4.707-6.989 5.908 3.977 4.707c.334.414.649.67.886.808.236.118.512.118.807 0 .295-.138.709-.414 1.221-.847.019-.02.078 0 .137.079.079.078.099.137.059.157-.452.394-.826.69-1.102.886l-1.713 1.418-1.476 1.28c-.237.237-.611.552-1.064.926-.019.02-.078 0-.137-.078-.059-.08-.079-.138-.059-.158.492-.414.826-.748.984-1.024a.895.895 0 0 0 .138-.788c-.079-.276-.296-.61-.65-1.004l-7.973-9.434c-.355-.414-.65-.67-.886-.788-.237-.118-.512-.118-.808 0-.295.118-.669.374-1.161.788-.02.02-.079 0-.138-.079-.079-.079-.098-.138-.059-.157l1.103-.887c.649-.492 1.141-.906 1.496-1.201a39.045 39.045 0 0 0 1.654-1.477l1.063-.926c.019-.02.078 0 .137.079.06.079.079.138.06.157-.512.434-.847.788-1.005 1.064-.177.276-.216.551-.137.827.078.276.295.61.63 1.024l3.524 4.156 6.989-5.909-3.524-4.155c-.335-.414-.65-.67-.886-.808a1.005 1.005 0 0 0-.827-.02c-.295.119-.709.395-1.221.828-.039.04-.098.02-.157-.079-.079-.079-.079-.138-.04-.177l.985-.808c.669-.531 1.26-1.004 1.772-1.418.374-.315.846-.748 1.457-1.3l1.102-.965c.039-.04.098-.02.158.08.078.078.078.137.039.176-.492.414-.807.749-.984 1.024a.95.95 0 0 0-.119.788c.079.256.296.591.63 1.005l7.974 9.434c.335.413.65.67.886.807.256.138.512.138.787 0 .276-.118.67-.394 1.162-.807.098-.06.157-.04.216.039ZM154.409 19.793a.372.372 0 0 1 .158-.04c.059 0 .078.02.098.02.492 1.28.984 2.403 1.516 3.408.059.118.098.236.079.315-.02.079-.099.158-.237.236l-10.217 5.475c-.04.02-.099 0-.138-.098-.059-.099-.059-.158 0-.177.531-.296.905-.532 1.102-.749a.928.928 0 0 0 .256-.728c-.019-.276-.177-.65-.433-1.123l-5.827-10.891c-.256-.473-.473-.788-.689-.965-.197-.178-.453-.237-.749-.197-.295.059-.708.216-1.22.492-.04.02-.099 0-.138-.098-.059-.099-.059-.158 0-.178l9.785-5.238c.157-.08.275-.06.354.078l1.693 3.033c.02.04-.019.08-.098.138-.079.06-.138.079-.177.04-1.339-1.596-2.894-1.891-4.706-.926l-.945.512c-.571.295-.905.61-1.043.945-.118.335-.059.749.197 1.221l2.579 4.806 2.264-1.221c1.732-.926 2.284-1.97 1.654-3.132-.02-.039 0-.098.098-.137.098-.04.138-.04.158 0l1.082 2.067.611 1.103c.295.493.531.887.708 1.202.02.04-.019.079-.118.118-.098.059-.157.059-.157.04-.729-1.36-1.969-1.557-3.721-.611l-2.304 1.162 2.855 5.337c.276.512.571.827.866.926.315.098.709.02 1.201-.256l1.162-.61c2.106-1.123 2.894-2.857 2.362-5.2-.019-.04.02-.06.079-.099ZM161.91 5.455c-.532.808-.827 1.91-.886 3.309 0 .04-.039.06-.138.079-.098.02-.157 0-.157-.04-.079-.689-.217-1.575-.374-2.658-.158-1.084-.296-1.891-.433-2.443-.02-.078.019-.137.118-.157.098-.02.157 0 .177.098.098.375.61.453 1.595.237 1.496-.296 3.248-.67 5.236-1.143 1.024-.236 2.107-.512 3.249-.807l1.752-.433c.669-.158 1.142-.316 1.418-.473.275-.158.433-.374.472-.65 0-.079.039-.118.138-.138.079-.02.138 0 .157.079.079.551.217 1.379.414 2.481.197 1.103.374 1.99.531 2.679.02.059-.019.098-.118.118-.098.02-.157 0-.197-.04-.492-1.3-1.122-2.185-1.909-2.658-.788-.492-1.733-.59-2.816-.355-.492.119-.826.237-1.043.375a.725.725 0 0 0-.354.57c-.02.237.019.592.118 1.064l2.776 11.994c.118.532.275.906.433 1.143.157.216.413.334.728.354.335.02.847-.059 1.516-.216.059-.02.079.039.118.137.02.099 0 .158-.039.178-.61.138-1.083.236-1.437.315l-2.146.473-2.028.492c-.354.098-.866.236-1.496.374-.04 0-.059-.04-.079-.138-.02-.098-.02-.157.02-.157.669-.158 1.161-.316 1.457-.473.295-.158.472-.374.531-.65.059-.276.02-.67-.098-1.201L166.32 5.14c-.098-.453-.217-.768-.354-.965-.138-.197-.335-.295-.571-.335-.237-.04-.611 0-1.063.118-1.083.158-1.871.69-2.422 1.497ZM195.576 16.425c0 .099-.04.158-.138.158-.335.02-.886.02-1.634 0-.748-.02-1.3 0-1.634 0-.453.02-.965.06-1.575.099-.611.059-1.063.098-1.418.098-.079 0-.118-.06-.118-.158s.039-.157.099-.157c.511-.02.885-.099 1.122-.217a.567.567 0 0 0 .334-.59c-.019-.276-.177-.71-.492-1.34l-3.091-5.75-4.823.157-1.89 4.687c-.217.532-.315 1.024-.295 1.458.019.63.255 1.083.708 1.398.453.295 1.083.453 1.89.413.079 0 .138.04.138.158 0 .099-.039.158-.118.158-.315.02-.788.02-1.398 0-.669-.02-1.26 0-1.772 0-.472.02-1.043.059-1.673.118-.571.059-1.044.098-1.418.098-.078 0-.137-.04-.137-.157 0-.099.039-.158.137-.158.493-.02.906-.138 1.241-.335.334-.216.649-.57.945-1.083.315-.512.649-1.28 1.063-2.304L184.905.059c.079-.02.158-.059.295-.059.118 0 .197.02.217.079l6.989 12.959c.669 1.26 1.221 2.127 1.654 2.58.433.453.886.67 1.378.65.079 0 .118.04.138.157Zm-13.073-8.35 4.213-.138-2.362-4.412-1.851 4.55ZM201.383 5.633a5 5 0 0 0 1.005 1.497c.413.453 1.004.984 1.752 1.634.807.71 1.437 1.3 1.89 1.792a5.902 5.902 0 0 1 1.083 1.714c.255.65.334 1.359.196 2.147a4.268 4.268 0 0 1-1.082 2.284c-.571.63-1.319 1.064-2.245 1.32-.925.256-1.929.295-3.012.118a9.509 9.509 0 0 1-2.225-.65c-.748-.315-1.299-.65-1.673-1.004-.138-.138-.197-.316-.177-.552l.492-4.037v-.02c.02-.079.059-.098.157-.098.079 0 .138.039.138.118.335 1.556.807 2.855 1.418 3.9.59 1.043 1.476 1.673 2.638 1.85.748.119 1.417.02 1.988-.315.571-.334.945-.984 1.103-1.95.118-.767.059-1.476-.177-2.107a5.101 5.101 0 0 0-1.024-1.654c-.433-.473-1.044-1.044-1.811-1.753-.749-.69-1.339-1.24-1.753-1.713a5.292 5.292 0 0 1-.984-1.596 3.85 3.85 0 0 1-.197-2.028c.158-.906.532-1.635 1.142-2.186.61-.552 1.358-.906 2.225-1.084a6.987 6.987 0 0 1 2.638-.039c.59.099 1.181.256 1.752.453.571.217 1.063.433 1.437.67.158.078.236.157.276.256a.54.54 0 0 1 .039.315l-.492 3.604c0 .06-.059.079-.157.098-.099.02-.158-.02-.158-.098a11.569 11.569 0 0 0-.945-3.131c-.453-.966-1.26-1.537-2.441-1.734-.788-.118-1.457 0-1.989.375-.531.374-.866.965-1.004 1.752-.138.69-.059 1.28.177 1.852ZM215.165 5.377c-.886.393-1.733 1.162-2.54 2.304-.02.04-.059.04-.157 0-.099-.04-.119-.079-.119-.118.296-.63.67-1.438 1.142-2.442a28.38 28.38 0 0 0 .965-2.285c.039-.079.098-.118.177-.079.099.04.118.099.099.177-.138.375.275.73 1.201 1.064 1.417.571 3.09 1.201 5.02 1.89.984.355 2.047.71 3.15 1.084l1.713.59c.63.237 1.122.355 1.437.375.315.02.571-.079.748-.296.039-.059.098-.078.177-.039.079.04.118.079.099.138-.237.492-.571 1.28-1.004 2.304a64.034 64.034 0 0 0-1.005 2.54c-.019.06-.078.06-.157.02-.098-.039-.138-.078-.138-.137.295-1.36.236-2.443-.157-3.27-.394-.827-1.123-1.437-2.186-1.812-.472-.177-.827-.256-1.082-.256a.78.78 0 0 0-.611.276c-.157.177-.315.492-.472.945l-4.174 11.581c-.177.512-.276.906-.256 1.182.02.276.158.492.433.69.276.196.729.413 1.398.649.059.02.059.079.02.177-.04.099-.079.138-.138.118a37.357 37.357 0 0 1-1.378-.531l-2.048-.768-1.969-.69c-.354-.118-.846-.275-1.476-.492-.039-.02-.039-.079 0-.177.039-.099.079-.138.098-.138.65.236 1.142.374 1.497.394.334.02.61-.06.807-.256.197-.197.394-.552.571-1.064l4.193-11.64c.158-.433.236-.768.217-1.004a.858.858 0 0 0-.296-.59c-.196-.158-.511-.316-.964-.493-.985-.315-1.949-.315-2.835.079ZM236.053 27.218c.04.02.079.06.099.118.019.06.039.08.019.099-.846 1.083-1.555 2.088-2.126 3.053-.079.118-.138.197-.217.216-.078.02-.177 0-.315-.079l-9.981-5.888c-.039-.02-.039-.08.02-.178.059-.098.098-.118.157-.098.512.315.925.492 1.201.551a.91.91 0 0 0 .748-.157c.217-.178.453-.493.729-.946l6.28-10.654c.276-.453.433-.828.472-1.084.04-.256-.039-.512-.236-.748-.197-.236-.551-.492-1.043-.788-.04-.02-.04-.079.019-.177.059-.099.099-.118.158-.099l9.568 5.653c.158.098.197.197.098.335l-1.712 3.013c-.02.04-.079.02-.158 0-.098-.04-.138-.079-.118-.138.669-1.97.118-3.466-1.654-4.51l-.925-.532c-.551-.335-1.004-.453-1.339-.394-.354.06-.669.335-.945.808l-2.776 4.687 2.205 1.3c1.693 1.005 2.875.926 3.524-.217.02-.039.079-.039.178 0 .078.06.118.099.078.138l-1.201 1.99-.61 1.102c-.256.512-.472.926-.65 1.221-.019.04-.078.02-.157-.039-.099-.06-.138-.099-.118-.118.768-1.32.315-2.482-1.398-3.506l-2.185-1.28-3.072 5.22c-.295.511-.413.905-.334 1.22.078.315.354.61.846.906l1.122.67c2.048 1.22 3.938.984 5.67-.69-.019-.02.02 0 .079.02ZM248.968 43.663c-.079.08-.138.08-.216.02-.256-.236-.65-.61-1.182-1.123a40.99 40.99 0 0 0-1.181-1.142c-.335-.295-.728-.63-1.201-1.024-.472-.374-.827-.69-1.083-.906-.059-.04-.039-.118.02-.197.079-.079.138-.098.197-.04.374.355.709.552.965.631a.58.58 0 0 0 .649-.177c.177-.197.374-.63.571-1.32l1.772-6.282-3.583-3.25-4.627 2.048c-.531.236-.945.512-1.22.847-.414.453-.571.965-.453 1.497.118.532.472 1.063 1.063 1.615.059.059.059.138 0 .216-.079.08-.138.08-.197.02a31.971 31.971 0 0 1-1.004-.965 57.96 57.96 0 0 0-1.26-1.221 31.47 31.47 0 0 0-1.28-1.083c-.452-.355-.807-.65-1.082-.906-.059-.06-.059-.138 0-.217.078-.079.137-.098.197-.04.374.336.748.552 1.122.631.374.079.866.04 1.437-.118.571-.158 1.358-.473 2.362-.906l12.915-5.731c.059-.02.138.02.237.098.098.079.118.158.098.197l-3.996 14.18c-.394 1.379-.591 2.364-.611 2.994 0 .63.158 1.103.532 1.438.098.059.098.138.039.216Zm-3.583-15.086 3.13 2.836 1.359-4.805-4.489 1.97ZM260.761 35.096c-.965-.157-2.087 0-3.386.512-.02.02-.079 0-.138-.078-.059-.08-.059-.138-.02-.158.591-.355 1.359-.827 2.304-1.418.925-.59 1.614-1.044 2.047-1.379.079-.059.138-.039.197.04.059.078.059.138-.02.197-.315.236-.177.748.414 1.556.866 1.26 1.929 2.718 3.15 4.352.63.847 1.299 1.733 2.047 2.64l1.103 1.437c.413.551.728.906.984 1.103.256.197.512.256.788.157.059-.02.137 0 .177.06.059.078.039.118 0 .177-.473.295-1.181.748-2.107 1.378-.925.63-1.673 1.143-2.224 1.556-.04.04-.099 0-.158-.078-.059-.08-.079-.138-.039-.178.984-.965 1.555-1.91 1.673-2.816.118-.906-.138-1.832-.827-2.718-.295-.394-.551-.67-.768-.807-.216-.138-.433-.178-.669-.099-.236.079-.531.236-.925.532L254.5 48.43c-.433.334-.728.61-.866.847-.138.236-.138.512-.02.827.119.315.394.748.808 1.3.039.039 0 .098-.079.157-.079.06-.138.079-.177.04-.374-.493-.65-.906-.867-1.202l-1.279-1.772-1.26-1.655c-.237-.295-.552-.689-.945-1.22-.02-.02.019-.08.098-.139.079-.059.138-.078.158-.059.413.552.748.946 1.023 1.143.276.216.532.295.808.216.275-.059.63-.256 1.063-.57l9.903-7.387c.374-.275.61-.512.728-.709a.825.825 0 0 0 .079-.65c-.059-.236-.237-.55-.532-.945-.63-.886-1.417-1.398-2.382-1.556Z"/></g><defs><clipPath id="a"><path fill="#fff" d="M0 0h378v188H0z"/></clipPath></defs></svg>